<?xml version="1.0" standalone="no"?><!DOCTYPE svg PUBLIC "-//W3C//DTD SVG 1.1//EN" "http://www.w3.org/Graphics/SVG/1.1/DTD/svg11.dtd"><svg t="1569488279141" class="icon" viewBox="0 0 1024 1024" version="1.1" xmlns="http://www.w3.org/2000/svg" p-id="2212" xmlns:xlink="http://www.w3.org/1999/xlink" width="200" height="200"><defs><style type="text/css"></style></defs><path d="M517.632 1004.8c-208.4352 0-399.872-132.8384-471.168-327.1936C-25.6 481.0752 37.4272 255.0784 200.448 122.7776 362.4448-8.7296 597.4272-25.6 776.6272 82.0224 955.136 189.2096 1049.6 400.384 1009.5104 603.648c-45.4144 230.3488-255.4368 401.152-491.8784 401.152zM797.8496 217.088c-6.2464 1.152-5.76-7.2704-9.984-10.9824-1.3568 6.2976 2.7904 14.5408 1.792 18.2784-3.1744 12.2368-10.0864 9.1648-18.6112 11.3664 3.6352 7.9872 16.6656 2.2784 20.8128-1.1776 5.8624-4.8896 1.0752-16.6656 11.2128-14.7712-1.28-3.072-3.0464-3.9936-5.2224-2.7136-1.152 0.2304 0.512-0.1792 0 0z m12.672 10.368c-1.9968-0.2816-1.2032-1.4848-3.0464-3.328-0.4864 7.1424 6.5024 6.8864 3.0464 3.328-0.4096-0.0512 0.768 0.768 0 0z m109.7728 337.6128c0.7424-5.2224 5.1456-20.9664 2.8672-25.6768-2.7392-5.6064-7.0656 2.3552-6.3744-5.8112-7.7824-0.5376-7.2192 16.5632-6.3744 19.3536 1.2032 3.9424 7.0912 8.064 9.8816 12.1344 1.2032-8.4736-0.3072-0.4352 0 0zM124.2112 605.44c3.8912-10.8544 7.296-2.9952 12.4416-9.7536-3.9168-7.7568 0.1536-3.8656-11.136-4.0448 9.344 0.128-6.6048 8.2176-3.072 1.0752-1.408 2.8416-0.1024-0.768-3.0976-1.0752 0.3072 1.408 2.3808 14.2848 4.864 13.7984 1.0496-2.9184-0.4096 0.0768 0 0z m16.64-161.3824c-0.1536 0.8704 1.7664-0.4352 0 0-0.0512 0.2048 0.256-0.1024 0 0zM133.8112 373.76c0.1536 0.1536 0.1536-0.4096 0 0 0.0256 0.0256 0.0256-0.0512 0 0z m113.0496-156.928c-5.3504-0.4608-1.1008 0.2048-0.896-0.7168 1.0752-4.4288-5.4016 4.2496-0.0768-1.8432a38.528 38.528 0 0 1-4.7616-1.92c0.384 0 3.2768 0.9984 3.712-0.0256-2.1504-3.712-7.2448 2.6112-7.4496 2.816 2.688 0.896 9.1392 1.5872 9.472 1.6896-0.2816-0.0512 0.1024 0.0256 0 0z m-18.6112 6.8096c-1.408 1.408 1.6128 0.9984 0 0-0.2304 0.2304 0.3072 0.1792 0 0z m113.2288-79.6928c4.224 2.944-0.6912 0.3072-3.456 1.664 3.84 0.768-3.7376 2.7904-3.3792 3.712 4.0448-0.9472 8.2432-2.816 11.136 1.5616 1.6128 2.4576-9.7024 1.152-10.1632 1.2544 0.1536 0.4608 3.6352 0.6912 0.512 1.2544 0.6912 0.3072 5.4016-0.512 6.2464 0.4608 1.8688-1.4592-8.2688 5.504-4.9664 2.1504 3.072-0.2304 7.936-3.2256 7.7312 1.664 0.8192-0.4608 6.784-4.3776 7.296-1.4592 0.5376 3.1744-8.9344 3.328-10.2144 3.2256 0.8192 2.1504 10.5216 7.5264 12.2368 6.272-3.5584 2.6112-6.784 5.6576-11.8528 3.0464 0-1.4592 4.8384 0.512 4.48-1.6128a22.784 22.784 0 0 1-8.832 2.7648c2.688 2.4832-0.9216 3.5328-4.992 4.7872 0.128-1.3312 0.8704 3.7376-0.128 3.0976-2.1504-1.4336 8.6016-2.56 8.6528-2.56-1.0496 1.2544-4.0192 2.432-4.608 3.1744 0.4352-0.1536 8.1152-2.5344 9.0112-0.7424 1.664 3.328-5.9136 0.6912-0.4352 3.84 5.5296-4.3264 10.7264-0.4608 15.6928-1.5616 0 0 0.64 3.2256 1.1008 3.4816 0.2048-0.128 9.6512 2.56 8.0384 5.1968-1.1264 1.8432-4.864-0.128-5.4272-1.5616-1.664 1.024-1.2288 1.5104-8.1408 1.152-6.9376-0.384-15.4112-3.3536-22.9632-2.3552 0.6144 0.9472 7.0144 0.9728 6.8608 1.92-1.3824 0.3072-1.9456 0.7936-1.6896 1.536 5.3248 1.6896 20.1728 0.256 1.8944 4.8896 5.5296 2.5088-2.3296 2.4576-0.4352 5.504 0.8448 0.0512 11.8272-4.0192 11.3408-3.1488-0.1792 0.3584-6.8352 5.1456-7.1168 4.9152 7.4496-0.64 18.3808-7.5008 25.856-10.4704 1.152 5.7088-15.4624 27.9296-26.5728 27.2896 4.5312 4.6848-8.576 0.5888-8.96-0.1024a0.9984 0.9984 0 0 0-0.4864 0.6144c4.6336 5.2736 1.9968 2.3552-0.512 9.8048-0.5376 1.6128 1.1776 3.8912 0.4096 5.376-1.5872 3.1744-8.3712 4.9408-8.3712 5.0176-0.256 3.5584-7.1168 5.376-6.7328 8.6528a3.5072 3.5072 0 0 1-1.6896-0.128c-1.1776-0.7936 1.4592-5.5296 1.8176-6.0416-1.3568 0.5376-5.5296 1.5616-5.8368 4.2496 1.536 0.2816 2.2016 1.1264 2.048 2.5856 2.048 2.048-6.5024 0.6656-6.1952 0.4864 1.8944 3.968-4.9408 0-3.84 2.8672 9.5488-1.7408-3.6608 3.9424-4.0192 4.096 2.6624 1.1008 6.0672 2.9696 6.2976 5.4272-1.4592 0.768-4.5312 1.408-6.272 2.0224 0.128 0.0256 7.5776 1.8176 6.4 3.456-0.7424 1.0496-4.736 0.1792-5.6064 0.1792 1.28 0.5888 3.328 1.3056 4.8128 0.5376 0.3328 2.0992-4.5312 3.6352-4.7104 3.7376-0.0512 0.256 5.8112 4.4544-1.6128 0.9984 1.6128 4.224 1.8688 2.4064-2.6112 5.1968-0.1792-0.1536 3.2256 2.7904 3.0464 2.2272-1.3568 0.5888-2.816 0.4608-4.4032-0.4352 4.3008 3.2768 4.096 6.1696 5.5808 5.9392-0.4864 0.512-3.4304 7.5264-5.0944 4.7104 0.5632 0.9728 5.8112 1.3824 0.7168 3.072 1.4336 0.7936 3.7888-0.0512-1.3824 0.9216 0.7424 1.9968 3.5328 0.4864 4.7616 0.4608a10.496 10.496 0 0 1-6.1696 2.7904c0.4352 1.2032 5.8624-0.8192 4.6848 1.92-0.4608 1.1008-11.4944 2.6368-13.5424 2.3808-0.256-0.3328 1.8176-4.5056 1.92-4.736a13.312 13.312 0 0 0-2.6624 2.1248c-1.8688-2.4832-3.4048 1.1264-4.6336-0.9984 0.128-0.1024 3.5584-2.8416 3.5584-3.1488a2.6112 2.6112 0 0 1-1.3568-1.4592c-1.2288 0.9472-2.2016 1.024-3.456 1.9712 0.3072-1.0752 3.456-2.4832 0.5632-3.4304-2.688 0.9728-8.5504 6.4256-13.5424 5.12 6.0672-1.0752-0.9984-1.664-0.768-1.5872-1.1264-0.8448-1.408-1.408-4.0192-2.6624 6.1696-1.4336-3.3792-0.0512-3.968-0.5888 2.944-1.2544 3.3024-2.944-1.152-2.2528a6.0416 6.0416 0 0 1 2.2784-1.8176c-2.1248-3.8656-4.7616 0.9472-4.9408-8.2944-3.0208-0.8192-2.3296 1.4848-5.0944 0.9472-1.792-2.0992-3.4304-2.9696-0.0512-5.76-4.4544 0.8192-2.7904 0.9728-6.016-0.5632 1.92-6.656 1.2032 5.632 0.256-2.1248 1.8432 0.2816 6.0416-1.5104 7.8336-2.1504-2.3296-2.6624-6.912 3.9168-8.8832 0.896 5.6064-6.5536 5.76-1.792 12.416-2.2016-0.3584-1.0752-7.9616-6.272-7.936-6.272-0.1536 0.5376-4.9152 9.8304-6.656 8.1152-1.152-0.9984 1.4336-5.5808 2.432-5.76-3.5328-2.944-5.2736-1.5872-1.7408-5.4016 0.4864 1.4592-6.8608-0.9728-7.0912-1.1264 0.1792-0.9984 0.9472-1.6384 2.2784-1.8944-1.792 0.9984-2.8928 0.8448-3.3792-0.4608 2.3808-5.4272 14.3616-6.2208 17.9968-9.344-3.0976-0.8448-18.3808 6.4256-18.6624 7.7824 1.152-0.5376 1.1008-0.8448-0.1536-0.9216-2.4576-1.536 8.7296 1.024 1.5616-3.2 1.7664-0.3328 3.5072-0.7424 5.2224-1.28a50.6368 50.6368 0 0 1-7.7056-2.6624c4.2496-1.2288 9.344-1.6384 13.696-1.0496-4.2496-3.9936-9.0624 1.1776-13.8496-0.6656 4.4288-3.968 8.832-3.4048 14.464-3.5328-0.3584-1.1008 0.6144-1.5616 0.4096-2.2272-4.992-1.4848-9.3184 4.9664-14.2592 3.968-2.56-2.7648 6.9888-4.0704 6.7072-3.9424 0.4096-0.2304-3.5328-0.6656-3.072-1.536 3.6352-0.6912 8.2432 1.8176 11.8016 0.6656-1.1776-1.4848-3.712-3.328-4.0448-2.8416 0.8448 1.4848-7.2448 1.4592-8.8576 1.3312 1.3568-0.4096 12.1344-5.2992 11.9808-5.3248-7.2704 1.3824 2.7648-3.072 2.7904-3.4304-1.7152-1.152-1.3568-0.2304-3.6096 0.0512-0.3584-1.8944 1.8688-4.7872 3.0208-7.1936-3.3024 1.152-13.8496-2.8416-15.744-0.9984 0.7936 0.1024 9.3952 3.7888 8.5248 5.2224-0.8448 1.3824-11.6736 4.9408-10.9568 1.9968a3.84 3.84 0 0 1 2.944-0.8448c-8.192-8.064-33.5104 30.1568-36.7872 34.3296 2.56-0.5632 4.4288 0.7936 5.5296 4.1216-1.9712 0-3.072 0.256-3.072 2.176 6.656 0 9.5488-0.5376 15.5392 3.6608-1.5616 4.48-3.712 0.4608-6.5792 2.2784a7.6544 7.6544 0 0 0 2.688 3.0464c-5.4016 0.7936-7.7824-0.896-5.9904 6.8096-6.8864 0-9.1648-8.0384-16.3072-11.2128-2.688 3.6608-2.304 2.816-4.5824 6.0672 2.56 5.1968 7.9104 7.1424 13.2352 9.6768-3.7888 0 3.1744 5.76 2.8928 8.32a12.0832 12.0832 0 0 1-3.7888-4.4544c-0.3328 2.5088 2.0224 9.6512 2.2016 9.984-4.096-1.6384-10.2144-6.5792-13.7472-9.2928 0.7424 4.2496-1.8176 0.3072-4.992 0.3072 0.7168 5.6832 11.3408 7.3728 13.3632 13.7984-7.7568-2.7136-29.696-15.6672-26.2912 2.688 0.7424 4.0448 8.9344 2.1504 10.3424 5.2224 1.5616 3.3792-2.816 12.2112-1.4848 13.9264 14.1312 0 15.744 4.0192 23.1936-10.7776 3.5584 3.712 16.2304 20.224 15.0272 22.6048a5.0688 5.0688 0 0 0-4.2752 0.1024c2.5088 3.7376 10.0864 5.7344 7.9616 10.7776 5.5552 0.256 8.6272 1.6384 14.336 3.0464-2.56 4.608-11.648 1.9456-12.7488 8.0128 10.9056-4.352 27.0336-2.816 16.5376 10.112-6.8096 8.3968-24.192 6.3488-33.8944 7.7824-12.928 1.9456-25.216 6.528-31.8976 20.5824 4.4032-3.4816 26.5216-23.1936 31.2576-10.752-1.0496 2.1504-10.4704 3.4816-10.4704 3.3536 1.9456 0.1792 6.9632 0.9472 8.1664 1.792-1.2544 1.2288-1.8176 2.4832-3.072 3.7376 1.8432-0.1024 4.4544 4.2496 7.1424 5.5296-0.2304 0.128-1.3824 0.3584-1.3824 0.5888 5.2992 0 12.3136 1.6896 14.336 4.2496-6.7584 2.6624-25.2672 11.5456-22.4 3.84-0.5632 0.9728-1.1264 1.2032-1.6896 0.7168 1.6384-3.2 9.6768-5.0176 12.9536-4.9408-1.28-2.0736-3.584-2.048-6.9888 0.1024 0.2304-1.4848 1.1776-2.5088 2.8928-3.072-1.9712 0 0.6656 1.1776-1.6896-0.6912 0.9728 2.8928-9.4464 6.0416-11.3408 4.5568 2.3808 5.2224-8.0128 3.328-7.5776 3.328 0.2816-0.7424-16.6144 19.8656-5.4784 15.104 0 0.2816-5.12 2.6112-5.376 0.3072-1.8176 0.8192-13.6448 7.5264-12.3392 3.456-1.4336 3.9424-0.4352 8.576-4.864 11.8528a16.1536 16.1536 0 0 1-2.0992-4.8384c-1.7152 1.024 3.4816 12.6208-2.7904 14.1056-1.2288-3.6096-2.2016-11.0592 0.512-11.7248-0.7424-0.128-0.8448-0.4864-0.3072-1.1008-2.0224 1.4336-3.8144 2.1248-1.9968 6.5024-2.1248 0-0.9216-4.7872 0.2048 1.4848-2.048-1.1264-2.0992-1.8688-4.2752-1.7664-0.512-2.6368 6.2976 6.3488 3.6608 3.7376-3.9168-3.3792 1.0496 0.4096 1.1008 1.8944-0.7168 0-1.28 0.7936-2.176-0.512 1.024 0.8448 1.8432 0.9984 1.9968 2.3808-1.4336 0.0512-1.9968-2.048-3.0976-1.3824 2.4576 4.7872 4.4544 1.5616 5.2736 6.016-1.1776 0-3.2512 0.3328-4.1728-1.0752 0 4.2752 3.072-0.7168 3.072 3.3536-0.128-0.2048 1.408-3.456 1.5104-0.2048-1.4336 2.3552-4.608 1.28-6.0928 0.7936 0.4096 0.6656 2.5088 1.0496 2.5088 1.5872-0.7424 1.5104-1.5872 1.6896-2.5088 0.4864 0.7936 1.9968 2.048 0.4096 3.4048 0.9984-3.2 6.1952-17.1776 7.424-21.0176 14.7456-6.2976 12.032 6.4 21.888 1.9968 34.8928-8.4992 0-10.368-19.0976-14.9504-23.8592-0.5376 11.6224-0.6144 22.784-0.1536 34.4064 12.1344-5.5552 34.4064 6.2208 42.88 12.4672-0.9216 1.8688-14.3616 1.4336-15.9232 1.3824 0-0.8192 2.4064-2.4832 2.4832-3.072-6.5024-4.6848-16.768-3.7888-23.0912-8.6784 6.528-1.792-4.6592-1.3312-6.1952 0.7936-4.0448 5.5296 4.5312 59.6736 8.2176 61.824 5.4016 3.1232 25.7792-8.4224 17.8688 6.9888 1.6896-0.5376 6.9888-6.5024 7.9872-1.5872-1.7152 2.0224-8.064 9.216-2.5088 13.4144 3.9936-0.7424 1.3568-7.808 0.3072-8.4736 2.8416-0.6912 5.5552-1.7664 8.064-3.2768-1.3824-1.1264-1.4848 0.3328-2.5856-1.5616-2.7136 7.4496 37.4528 6.3488 37.3248 6.1184-0.6656 1.3056-2.0224 0.64-3.4816 0.5888 0 3.9424 7.1168 3.3536 9.856 5.2224a40.9088 40.9088 0 0 1-4.4032 3.7632c7.5264 0.4608 13.6192 0.2816 14.848 9.088 0 4.224 65.3312 9.1904 29.1584 36.608 1.4848 0.9728 4.1984-1.3824 5.2736-1.6896 2.56 6.0672 7.1424 0.64 7.1936 5.4528 10.496-5.0688 18.5856-9.6 21.888 3.6608 10.8288-7.2448 39.1168 4.3008 43.2384 14.5408 3.456 8.576-10.9824 29.6704-16.6656 28.8768-0.1792 12.3904-1.6384 23.936-6.0672 34.1504-6.1952 14.2848-8.704 10.368-21.3248 16-5.0944 2.2784-14.72 5.9136-17.8944 10.6496-1.408 2.1248 1.408 10.0096 0.2048 12.928a68.0192 68.0192 0 0 1-12.8512 17.9712 29.696 29.696 0 0 0 3.8912-7.4752 12.7744 12.7744 0 0 1-2.7904-0.3072c0 13.4912-7.9872-5.1968 3.8656 13.056 6.2976 9.6512 21.248 18.56 30.3872 25.5232a407.808 407.808 0 0 0 215.3728 81.92 410.9312 410.9312 0 0 0 259.9936-68.1728 407.296 407.296 0 0 0 156.6464-202.8544c5.8624-16.896 17.2544-42.6752 15.104-60.544-0.4096-3.5584-5.9648-12.6464-6.5792-14.208-0.4096-1.0752-6.656-8.96-6.2464-6.8096-0.896-4.8128 2.1248-8.2688 1.3056-12.5696-0.64-3.2768-1.3824-29.696-8.0896-29.696-0.7424 7.3984-9.9072 7.6288-12.1344 6.016 0.2048-9.0112 0.8192-10.368-3.0976-14.6944 2.1504-0.384-12.0832-16.5632-13.1328-17.9712-6.784 6.528-6.1952 2.6368-13.1328 6.6304-6.6816 3.8144-23.6288 17.9712-29.3632 24.96-3.9168 4.7616-11.8272 28.3136-9.8816 32.384-6.4 2.1248-4.5056 6.8352-11.136 2.5856-3.0208-1.9456-5.9648-14.7968-7.7568-19.072-5.1712-12.3136-13.8496-30.7968-10.4448-43.3408-4.9408-0.1792-10.4192 15.232-17.4336-0.8704 1.5616 0 6.9376 0.2816 6.784-2.6624-8.576 2.9696-10.2912-6.5536-14.848-8.704-6.0672-2.8672-6.7328-2.176-15.5392-3.0208-6.7584-0.64-14.7456 2.2272-21.6064-0.128-2.7904-0.9728-9.856-7.9616-10.0352-7.9872-4.6592-1.2032-7.7056 3.2256-11.1104 2.0224-8.0384-2.8928-10.7008-8.704-16.8704-12.4928-7.3984-4.5568-6.912-9.3184-14.0288-0.7936 9.8048 4.7872 8.2944 15.3344 14.4384 23.3984 0.6656 0.0512 0.896-7.0144 1.8944-7.7056 3.3792 0.4864-0.2048 7.7568 5.376 9.2672 11.8784 3.2512 9.728-10.0608 18.304-10.0608 0.9984 10.624 14.3104 10.8544 15.744 18.9696 0.9216 5.376-14.8224 18.2272-17.4336 20.2752-6.7072 5.2992-46.6432 29.696-55.9872 23.6032-4.4032-2.8672-2.432-11.3408-4.2752-15.744-2.7648-6.528-8.6016-12.3136-12.0576-18.176-6.0928-10.3168-12.8-20.4032-18.6112-31.5392-6.3232-12.1088-7.2192-16.768-4.864-31.616 0.64-4.0192 6.2464-15.7696 4.0192-18.688-13.8496 0-28.5184 6.272-37.8368-0.7424-6.2208-4.6848-3.2768-8.0896-3.2768-13.9776-15.1808 2.2016 12.1344-7.3728 9.9584-4.5312a2.3808 2.3808 0 0 0-1.5104-0.4864c0.64-1.792 2.2272-2.2272 4.7872-1.28 0 1.2544-3.7888-1.408-3.7888-1.3824-0.6144 1.2288 18.688-5.248 18.816-5.248 9.8048-0.4096 13.184 4.2496 22.5024 5.3504 35.1488 4.0704-0.4608-17.408-5.2736-23.7056 3.5328-0.8448 4.352-2.944 6.8608-4.8384-4.224-6.7584-4.5312 0.9216 3.7888-5.632-1.408-2.816-21.4528 4.7104-24.7808 5.632 2.432 4.9408 7.7056 4.0704 12.032 4.6592-0.9728 3.712-24.4992 9.4208-13.1328-3.1744-0.3328-0.6656-6.7584-4.0448-7.6544-5.1456-7.0912 4.6336-10.752 6.8608-14.72 12.9792-6.528 10.112-4.0448 10.1888 1.8688 18.0224 0.3584-0.7936-13.056 5.9904-13.44 6.1184 1.5872-5.8624-13.952-6.656-8.7552-0.1792 0 0.2816-2.2272-1.2032-2.8928-0.6912 1.1264 0.384 1.536 0.9472 1.2032 1.664-1.2032 0.3328-2.2016-0.1536-2.9952-1.4848 0 4.8384 0.1536-1.4336-2.2784-2.048-1.5616 3.2512-2.2272 2.4064 2.176 7.68-1.4848 1.8432-0.0768-1.7408-2.2784-0.384 0 1.7152-0.9984 1.5872-0.9984 2.2528a16.9728 16.9728 0 0 1 6.5792 3.8656c-0.896 0.2048 0.6144 1.6128-0.4096 2.4576-2.304-1.5104-1.1264-2.4064-4.3776-1.3824 1.5104 1.6128 1.2288 1.1776 2.2784 2.4832-2.6368 0.0256-0.7936 0.1536-3.584-0.6912a8.4736 8.4736 0 0 0 1.5104 5.0176c-1.4592-0.9728-2.3296-0.7936-2.688 0.512-11.1616-5.6576 3.2768-8.9088 3.2768-8.6016-11.4432-0.8192-11.4688-7.2448-16.3328-14.3104-2.9952-4.352-15.5136-18.7136-18.304-18.56a79.7952 79.7952 0 0 1-5.376-6.016 3.5072 3.5072 0 0 1-2.0992 3.1488c-1.3568-3.4816-0.1536-4.1472-0.896-5.3248-22.4 1.3824 22.3488 29.9264 21.4016 32.6656-13.5936-8.7552-4.3008 14.7968-12.544 9.2928 0-8.5248-1.408-10.6496-6.5536-14.9248-4.5568-3.7376-12.0832-11.2896-17.1776-14.1312-6.9632-3.8912-6.1184-2.4832-13.3888-2.432 1.1264 0-12.5952 3.5328-11.136 2.7648-1.4336 0.7424-3.6096-1.024-4.5824-0.5376-2.8672 1.4592-3.328 5.8112-4.4032 6.5024-13.2096 8.3456-12.2112 22.1696-24.96 28.8768-15.2832 8.0128-18.4832-6.6048-30.3616-0.7936 0-4.8128 0.384-9.088-0.128-10.0864-0.6656 0.4864-1.6384 2.0992-2.3808 0.7168 8.0128-17.0496-3.9936-21.3504 12.0576-25.6768 7.168-1.92 17.4336 3.4816 23.68 0.896 4.3008-1.792 0.0512-15.104 4.2752-9.8816-2.9696-13.2608-13.5424-8.448-17.8944-16.7936 2.9952-0.4608 1.2544-2.176-0.4096-1.5616 0.384-4.992 13.7984-0.9728 15.1296-1.9712a8.3712 8.3712 0 0 0-2.0992-6.0416c2.56 0.2816 6.9376 4.736 10.2656 1.4848 2.5088 0.768 18.0992-19.5328 21.504-20.4288 1.5872 1.1008 0.4864 2.2016-0.1024 3.5584 4.736 0.6912-0.1792-5.4272 9.9584-5.4272 0.4096-1.1776 6.1696-2.6112 8.7552-3.9424-1.1008-0.512-4.4288-9.728-4.3776-10.2912 0.6912-10.496 6.0416-6.7584 12.544-6.5024 0 0-14.1056 14.9504 0.7936 13.6192 0.6912 0.9216 0.256 1.6384-1.3056 2.176-0.4096-0.5888 15.3088 1.8176 17.2288 2.4832-0.1024-5.7856 28.1088-6.8608 30.5664-10.6752 4.0192-6.272-0.1536-8.7808 6.3744-15.104 0.9984-0.9984 6.5792 10.9056 8.5504-4.0448-13.7472-9.0112 12.4928-12.0576 16.8192-7.808 0.3072-5.76 4.3008-0.0768 9.0624-3.456 0.4096 0.7936-10.0096-5.0944-7.3728-5.3248-0.9472 1.7152-9.0368 3.6608-9.0368 1.1008-1.2544 9.8048-39.6544-0.0256-18.0224-22.4256 0 1.9456 9.7536-8.0384 12.5184-7.8848 0.4864-8.064-9.6512-8.1664-13.9776-6.3744-6.4256 2.6624-5.3504 9.9072-9.4464 15.1552-4.1728 5.3248-11.4944 5.2992-12.6976 10.9312-2.5344 11.648 7.1936 7.3728 7.3728 16.1024-0.6656 0-12.3136 2.4064-11.9552 1.792 3.1744 0 7.0656 0.3072 9.6512 0.3072 0.0512 0.0512-3.6864 6.3488-3.6864 1.9456-2.9696 1.1264-1.9456 3.1488-5.8624 3.2768 1.2544 6.0672 0.768 9.984-3.0976 16.9728-3.7888-3.84-8.4224 5.3504-13.6448 4.2496 1.9456-9.344-7.9104-19.1232-10.1376-27.648-7.3216 5.1712-19.072 18.1504-23.296 4.0448a16.896 16.896 0 0 1 2.5856 1.1008c-0.7424-0.9984 0.6144-0.3072 0.6144-1.1008-2.1504 0.1536-0.512-3.1232-0.3072-3.5584-2.3808 2.176-0.5376 1.1776-1.9968 0.1024 0.1536 1.792-1.7408 1.6128-2.2784 1.28-0.768-1.1264-0.4864-2.048 0.7936-2.7648 0.4864 1.024 2.2016 1.152 3.584-0.6912-3.84 1.6128-4.0448-5.7344-3.584-8.3968 0.7424-4.352 7.6544-11.8016 7.4496-12.6208 5.632-5.5552 17.1008-7.9872 23.5008-16.4864 2.3296-3.072 6.0672-11.8272 7.6288-13.5168 8.2176-8.96 17.6384-15.9744 29.5936-22.4256 1.2544 0.8192-0.0768 2.6368-0.2816 3.6608 6.272-4.6336 16.6912-13.4144 25.7792-12.7232a7.7056 7.7056 0 0 0-3.3792 6.1952c3.9168 0.4864 6.528-13.44 7.0656-2.1504 3.5328-1.664 8.9856-10.5472 5.6576-0.2048 0.768 0.1536 12.7488-5.7088 13.3376 0.8704a13.312 13.312 0 0 1-9.2416 1.4848c2.8672 3.6352 17.0752 5.1456 20.7104 5.8368 4.9664 0.9472 16.512 4.6336 23.9872 9.1904 8.9088 5.4528 20.0448 11.4688 1.792 16.5376-8.5248 2.3552-24.4992-10.24-30.464-7.2704 3.0976 2.8672 8.8832 5.76 10.8032 8.6528 2.5344 3.7632-6.7328 1.5872 0.0512 7.6544 3.2768 2.944 8.3712 9.344 14.6176 7.04 3.7376-1.408-5.6576-4.8384-5.76-7.0656 3.8144-3.4816 12.1088 0.8448 17.1264 2.3808 5.76-8.3712-10.9312-2.3552 3.2256-10.4448 7.0656-4.0448 6.016-1.3056 13.7728-0.9216 0-7.2704-1.6896-11.6736-0.896-18.7392 5.8112-1.4848 10.24 0.7424 12.7488 5.9136-3.456-0.7424-6.1184 0.3328-7.9616 3.1744 13.312 10.2144 27.5968-11.8272 41.1136-11.7504-0.4608 3.8656-2.6112 3.072-2.5856 5.3248 5.9648 2.0224 10.5984-2.4576 16.768-2.9696 2.7904-0.2304 15.488 0.2048 12.9024 1.4848 4.3264-10.4448 6.0672-14.4384 24.0384-7.2448 5.4528 2.2016 12.8768 10.88 17.2288 5.888 4.4032-5.0432-7.4752-7.0912-9.3184-9.9072 0.7936-4.2752 7.2192-14.208 7.0656-15.7952-1.3056-13.0048 13.9008 11.4432-6.528-11.904-6.8608-7.8336-19.7888-13.7984-28.4416-19.1488-3.1744 1.7664-11.7248 6.9888-15.0016 10.24 4.5056 6.6816-3.9424 3.6352-7.3728 4.3264-17.408 3.5072 0.4352-5.3504 0.512-5.4528 2.7392-5.7088 3.0976-9.0624 13.44-14.1824-116.1728-68.0704-261.0944-74.1376-382.6944-16.0768 0.2816 0.2048 53.376-25.472 0 0z m2.7392 19.584c0.2304 0.3584 0.1024-0.0256 0 0 0.0512 0.0512 0.0256 0 0 0z m352.0768 230.656c1.6384 0.8192-10.8288-15.232-10.8288-15.8976 1.1264-1.1776 4.1216 1.0752 5.5552 0-3.7888-5.0944 2.5344-4.7104 7.7824-4.224-4.0448-7.9104 0.1792-12.4672-15.0528-6.912-12.0064 4.352-11.4176 6.5792-11.3408 16.6656 0.7168 0-0.0768-1.7664 0.9984-1.7664 0 10.1376 11.1872 12.6208 12.6464 19.7376-4.3776 0-4.8384 3.7376-5.4784 6.7072-0.5376-0.3328-0.9216 15.1552 13.056 12.8512 15.3088-2.5344 4.1728-13.7216 5.0432-14.3104 0-2.2528 2.6112-0.6656 2.6112-1.4848-1.7664-0.5376-6.0416-4.9408-3.3024-8.0128 1.2032 2.3552 6.9888 2.6368 8.064 0.512-5.1712-10.3936-10.1888 0.0768-9.7536-3.8656-0.2048-0.1024-0.0256 0.3072 0 0z m-119.1424 1.28c-1.5872-3.072-1.5104 1.5104 0 0-0.1792-0.3072-0.0768 0.0768 0 0z m133.2736-213.5296c7.5776 2.688-2.176 3.6352-1.2544 8.2176 0.9216 4.5312 7.5776 10.6752 7.7312 13.9008-7.1424-0.1024-9.8048 0.6912-16.128-0.4864-0.2048-2.4832 2.5088-1.7408 2.8928-3.6608-15.2064-4.6848-10.5216-0.64-8.0128-8.0896 1.664-4.9408 1.8688-11.5456 14.7712-9.8816 1.024 0.384-2.688-0.3328 0 0z m-135.9616-58.624c-8.2176 4.1728-14.1312 4.2752-23.3984 3.84 0-3.7632 4.3776-1.8432 4.3776-6.016a36.7104 36.7104 0 0 1-16.512-0.9984c2.8416-2.7648 4.3776-4.3008 7.0656-7.7824 6.9888 8.192 8.9088 3.0976 15.2064 0.2816-2.2016 7.5264 26.6752 0.6144 13.2608 10.6752-1.2288 0.6144 1.6128-1.2288 0 0z m-31.7696 3.6352a12.4672 12.4672 0 0 1 7.9872 4.2496c-15.1808 7.2192-10.7776 25.3696-29.3888 14.1312 2.9696-3.072 7.2448-0.4608 10.0608-4.0448-4.2496-3.9168-9.9328 3.7632-12.7488-2.0992 0.4096 0 12.2624-3.0208 12.2624-4.736-1.5872-0.2304-30.08-0.4864-18.5344-5.9136-3.0208-4.5824-5.6832 2.2784-7.2448-5.0176 8.0384-6.0928 9.4208 0.9216 14.72 1.9712a9.984 9.984 0 0 1 0.6912-3.7632c4.5056-1.92 4.736 5.0688 8.4736 5.9136 2.8416-2.5088 1.1008-15.9232 7.4752-2.56 5.0176 2.2016 0.0256-6.1184 6.2464 1.8688 1.0496 0.6656-0.896-1.1264 0 0z m-86.2976 211.8656c0-0.0256 4.4288 0.5888 4.8896 0.5888 0 3.2512-30.4896 7.8848-32.6656 7.296 2.8928-5.6576 11.8784-4.9408 13.8496-8.9856-3.5072 1.4336-8.4992 1.152-11.4432-1.28 5.7344-5.7088 2.9696-3.3536 2.9696-6.016 3.6608-7.2448 7.552 1.5872 7.8592-8.2944-3.4816 0-3.7888-0.9728-1.28-4.1472-3.4304-0.896-6.0416 1.1264-8.96 0.384 0.4608-2.9952 2.5856-5.9648 1.9968-8.4736-1.6384-0.0768-2.9952 0.7168-4.096 2.3552 0-2.1248 0.64-2.8416 1.408-4.9408-2.4064-1.5616-1.152 1.408-3.5072 0.2048 3.6096-5.9648 1.6384-17.8432 13.2608-13.2096 0.9472 1.8176-4.8128 3.9168-4.992 5.9136 0.7168 0.9216 10.6752-1.1776 10.2656 1.5872-0.64 4.1984-7.3216 5.5552-3.4816 7.68a11.776 11.776 0 0 1-5.0688 1.28c1.2288 2.432 23.9104 10.7776 17.6128 20.0448 5.1712 0.9984 13.7472 4.48 1.3824 8.0128 0 0.0256 1.664-0.4864 0 0z m-26.6752-26.0608c0.5376 4.224-2.176 0.512 0 0 0.0512 0.512-0.256 0.0512 0 0z m-0.5888 8.6784c-4.7616 8.1152-0.8448 13.2864-13.8496 16.4352-4.096 0.9984-8.3968-1.9968-8.1664-3.584 0.9984 0.0256 5.7088-1.5872 6.0672-2.9696-3.6352 0.4864-1.28-1.8944 0.9984-2.8672-0.5376-1.4592-4.224-0.7168-5.6576-1.3824 0.9472-1.2544 0.8192-1.536 2.176-3.0464a12.288 12.288 0 0 1-2.176-0.2048c0-4.224 4.608-2.0736 7.168-1.8944-0.7424-1.28-0.128-2.176 1.792-2.6624-5.5552 0 9.9328-9.5232 11.648 2.176-0.9472 1.5872-0.2816-1.92 0 0z m-19.2256 126.9504c1.792-4.6848 15.7952-22.144 19.5072-23.1936 1.1008-0.3072 12.1088 4.5056 15.3088 4.1472 2.4576-0.256 7.1168-2.7904 9.7024-3.456 10.7008-2.7392 19.9424-5.4272 30.848-6.272 5.504-0.4096 16.5376 1.5872 20.096-0.5376 0.0768 6.3744 0.3328 9.7536-4.6592 15.2064 0.5888 2.7392 22.5792 12.4416 26.5728 14.3104 21.9136 10.2912 12.928-6.8352 31.5392-7.0144 7.4752-0.0768 18.8416 8.4736 28.2368 9.088 9.9584 0.64 36.3008-7.6032 24.7296 15.1808-3.072 0.6912-7.0912-9.0112-7.4752-10.1376 0.9216-0.384 27.6992 66.2784 32.768 70.4768 0.6144-0.256 0.7936-0.8448 0.4864-1.7664 5.0176 2.816 20.0192 14.08 12.4416 17.664 0 13.7472 35.712-4.0704 39.2192-0.4096 10.1376 10.5728-29.824 45.5424-34.2272 49.7664-13.5424 12.9536-22.8096 23.5008-19.4304 40.064 5.0688 24.704 11.136 28.3392-10.0352 44.7488-17.792 13.7472-4.7104 13.0304-8.4736 27.2384-1.3312 4.9664-10.1376 11.6992-11.648 14.0032-10.0352 15.3088-17.3056 35.0208-38.0416 39.8848-6.1952 1.4592-25.856 2.56-28.3648 0-3.0464-3.1488-1.792-12.6208-3.8656-17.7664-5.8112-14.2336-10.0096-23.6544-14.5408-37.9136-6.3488-19.968-12.5696-25.0368-7.6544-45.7472 2.0224-8.6272 5.4528-14.4384 2.7904-23.9872-1.7408-6.3232-25.8048-38.272-15.744-37.1712 0-1.3056 0.7168-15.4624-0.5888-17.28-3.0208-4.096-6.8608-1.664-9.1648-2.9184-1.8176-0.9728-8.8064-2.3296-11.0336-2.9952 0.7168 0.2048 0.4352-1.6384-0.7936-1.9712-12.416-3.584-25.4208 0.1024-37.9392 2.2528-13.2864 2.304-40.6016 3.1744-45.9776-14.6944 2.9952 0-10.624-13.6192-8.8576-15.7952-4.1728-4.7872-8.8064-3.9168-9.2416-12.5184 0.0256 0.4864 5.4272-34.6368 0.5632-29.1584-1.1264-8.0128 10.624-22.8352 15.8208-28.3136 8.0384-8.4736 13.0048-12.1088 17.1264-23.0144 0.4864-1.28-1.1776 3.0976 0 0z m-20.4032-197.0432c-0.6912 8.4992-31.9488 12.3904-37.3248 5.9392 10.1632-10.5728-2.048-0.9728-5.2736-5.8368 0.5632-1.6384 9.728-1.8944 8.7552-3.7376-2.56-4.8128-8.8064 1.3568-11.0592-2.2784-2.1248-3.1232 6.0416 0.9216 2.4832-3.7376a6.8608 6.8608 0 0 1 5.0944-0.128c0-8.2176 4.5056 2.944 6.4768 5.7344 6.8864-6.3744 8.9344-5.76 15.9488-6.0928 7.1424-0.3328 5.7856-5.248 13.312 0.4096 2.2272 1.6896 8.9856 7.936 1.5872 9.728-0.0256 0.384 0.9728-0.2304 0 0z m106.0096 327.9616c-5.8624 3.1232-0.4352-0.768 0 0-0.9472 0.4864-0.2816-0.512 0 0z m158.7712 114.4064c10.9312-3.6096-0.8192-13.6448 1.8944-18.3808 4.9664-8.6272 6.3744-2.6112 11.264-7.3728 3.8912-3.84 6.4512-4.864 6.7584-10.88 3.7376 0.4096 4.6336-6.0416 6.5792-5.2224 3.6864 1.5616 6.528 13.7984 3.6864 16.1792-3.6096-2.2272-0.7424-3.1744-2.6112-2.0736-0.0768 8.9344-4.6336 50.3808-20.096 48.1792-5.9648-0.8448-11.9552-17.3056-7.4752-20.4288 0.4096-0.128-0.6912 0.4864 0 0z m-43.8784-264.0896c-2.7904 0.2048-6.9888 4.608-8.064-0.384 2.2272 0.1536 8.0384-2.2272 10.3424-3.0464-3.0976 0.9216-3.8656 2.0736-2.2784 3.4304-1.9456 0.1536-0.256-0.2816 0 0z m-42.4192 0.6144c0.2304-2.304-1.6384-2.8928-5.5808-1.792 0.3072-1.5616 0.3072-1.2288 0.9984-2.048 0 1.4592 10.2912 2.7648 11.7504 1.8688-0.4352 3.0976-2.816 3.7632-7.168 1.9712 0-0.2304 2.2272-0.128 0 0z m-43.1104-10.6752c-2.0736 1.1776-11.264-0.8448-12.928-4.0448 0.768-2.4832 11.648-2.56 13.824-2.0736 0 0-0.9472 6.272-0.896 6.1184-0.5888 0.3584 0.2048-0.5632 0 0z m-25.472-14.4128c0.5632 4.7104-2.4064 1.8432-4.0704 4.0448-6.0672-1.2544 1.664-21.632 4.0704-4.0448 0.1536 1.3312-0.1024-0.7168 0 0z m-3.0976-8.7808c0-2.6368-5.4016-5.376 1.408-8.8832 0.8192 0.6144 1.1264 9.2928-1.408 8.8832 0-0.1536 0.2048 0.0256 0 0z m-138.0864-219.52c-1.8432 1.9456-13.1584-1.1264-12.9024-1.5616 1.3824-2.2528 10.2144-1.8432 11.3664-0.3072a8.6016 8.6016 0 0 0-2.432 0.8448c3.9424 0 5.248 0.3328 3.968 1.024-0.2048 0.2304 0.0256 0 0 0z m-7.8336-4.3264c-1.2032 0.64-4.9152 2.4064-6.1952 1.8176 0.1792-2.3808 14.1056-4.5056 6.1952-1.8176-0.5376 0.3072 0.8704-0.2816 0 0z m-8.3456-1.5104a4.992 4.992 0 0 1 4.4288 0.2816c-1.5872 0.8192-6.6304 2.816-4.4288-0.2816 0.7168-0.128-0.2816 0.4096 0 0z m6.9376-18.6112c-4.5056-1.0752 0.4096-5.4272 3.9424-2.7904 1.024 0.7936-4.1216 2.816-3.9424 2.7904-0.256-0.0512 0.5888-0.0256 0 0z m-1.92 3.5584c-6.4 1.024 3.4048-2.9952 0 0-0.9728 0.1536 0.9472-0.8448 0 0z m-1.92-2.0224c0.0256 0 0.0512 0.4864 0 0-0.0512 0.0512 0 0.0768 0 0z m3.6352 7.8336c-4.1984 0.2816-4.6592-0.5632-1.408-2.6112 6.016-1.1776 3.072 1.9712 1.408 2.6112-1.4336 0.5376 0.512-0.2304 0 0z m4.1984 32.3072c-1.2544 0.4864-7.0144 4.224-8.3456 3.5584-5.376-6.3232 16.1024-7.8592 8.3456-3.5584-0.384 0.1536 0.7424-0.4096 0 0z m-76.9536 102.7584c2.176-6.6816 1.4336 4.1984 0 0 0.2304-0.6656 0.0256 0.0256 0 0z m-26.9568 102.2976c-0.384-3.1232-0.3072-0.5376-2.2016-0.7936-0.256-1.9456 2.176-3.4304-0.5888-4.5312-1.7152 4.0192-4.1984 5.5296-7.4752 4.5312-0.6144-2.4832 4.7872-1.7408 4.7872-4.1472a90.2912 90.2912 0 0 0-20.0192 0.3072c-1.152-3.3024 2.816-3.456 4.6848-5.3504-3.4816-0.8704 5.248-19.712 12.3392-17.3568 0.1792 0.4608-5.9136 8.96-5.8624 10.9568 3.4304-0.7936 1.3312-3.2 5.3504-1.6896-4.9408 4.9152 7.424 2.8928 9.472 4.1472a11.648 11.648 0 0 1-2.8928 2.5856c2.5088 2.3808 2.176 0.3072 4.6848 1.3568 0 1.3056-2.5088 1.8688-3.3792 2.2784a3.4816 3.4816 0 0 0 1.2032 2.6624c4.8896-2.4832 4.9152 6.4512-0.1024 5.0432-0.0768-0.5632 0.8192 0.2304 0 0z m-1.6128 255.1808c-10.112 11.776-11.1104-16.0768 1.5104-4.1472l-1.5104 4.1472c-1.28 1.5104 0.7424-0.8704 0 0zM244.864 222.0544c1.9968 1.7152-4.224 4.4544 0 0 0.896 0.768-0.9216 0.9728 0 0zM213.4272 403.968a12.2368 12.2368 0 0 1 3.3536-6.4256c4.9664 3.3792-2.0224 3.6864-1.664 6.7328 2.1248 1.3056 3.0976-4.1728 5.6576-0.6912-2.3296 3.0208-4.7872 3.1488-7.3472 0.384-0.5632-2.2528 0.768 3.2256 0 0z m-24.1152 142.0544c-2.7136 1.3056-3.84 0.7168-3.3792-1.7664 1.1008-1.1008 5.7088-0.5376 6.784 0.2816-0.5888 1.5872-1.7152 2.0992-3.4048 1.4848-1.3824 0.0512 1.8432-0.0512 0 0zM188.4416 601.6c-0.8448-2.304-1.1776-2.56 2.4576-2.56 0.0256 4.3776-7.0144 4.5312-2.4576 2.56-0.2048-0.4864-0.5376 0.2304 0 0z m-13.056-57.5488c-3.2-1.1008-7.2704 0.6144-8.448 3.6608-1.7152-0.512-13.2096-2.2528-14.0544-3.8656 1.2032-2.4576 6.8864 1.0752 9.6512-0.6912-2.3552-3.4048-1.024-2.8416-5.2736-5.0176 0-4.8128 21.8112 3.1488 23.3984 5.4272-2.816 4.1472-1.4336-1.3056-5.2736 0.4864-0.3328-0.128 2.0224-0.9472 0 0zM147.712 456.3968c2.5856 5.5808 0.1024 0.768 0 0 0.3584 0.768 0.128 0.9728 0 0z m-0.2048-0.6912c0.2816 0.9984 0.128 0.8192 0 0 0.0768 0.2048 0.0512 0.2048 0 0z m-0.1024-0.3072c0.1536 0.4352 0 0.3584 0 0 0.0512 0.1024 0 0.1024 0 0z m-5.1712 90.8288c-2.4064-0.6144-4.7104 1.8432-7.0656-1.5104 3.0464-2.2016 12.288 2.8416 7.0656 1.5104-1.28-0.3328 0.7936 0.2048 0 0z m678.9888 7.6032c3.5072-11.8784 12.2112 22.1696 1.408 14.0032-3.584-2.688-3.712-12.2112-1.408-14.0032 0.3584-1.2032-0.5376 0.4096 0 0z m-323.6096-250.752c1.536-0.5632 3.5328-4.5312 5.7856-3.6608-1.792 2.8416-8.1408 8.9088-10.9568 6.1184 0.9216-2.2272 2.6368-3.0464 5.1712-2.4576 1.1776-0.4352-1.2032 0.128 0 0z m10.4448 8.4736c1.2288 4.1472 2.0224-0.8192 3.8912-0.6656 0.7936 4.8384-2.9696 2.816 0 4.4288a18.7392 18.7392 0 0 1-2.304 1.9712c0.4352 0.8192-5.7344-7.8336-1.5872-5.7344 0.3072 1.024-0.0512-0.0256 0 0zM173.1072 425.5744c0-1.0496 1.9712 2.9696 0 0 0-0.0256 0.1792 0.3072 0 0z m1.0752 0.896c0 0.5888-0.0768 0 0 0 0 0.1024 0 0 0 0z m-27.136 27.9552c0-0.0256-0.0512-0.2304 0 0 0-0.0256 0-0.0256 0 0z m0.256 0.8704c0-0.6656 0.1536 0 0 0 0-0.1024 0.0512 0 0 0z m-0.0768-0.2816c0-0.6912 0.128 0 0 0 0-0.1024 0.0256 0 0 0z m-0.1024-0.3072c-0.1792-0.64 0.1536 0 0 0-0.0256-0.0768 0.0256 0 0 0z" fill="#a5afb8" p-id="2213"></path></svg>