<?xml version="1.0" standalone="no"?><!DOCTYPE svg PUBLIC "-//W3C//DTD SVG 1.1//EN" "http://www.w3.org/Graphics/SVG/1.1/DTD/svg11.dtd"><svg t="1569488586406" class="icon" viewBox="0 0 1024 1024" version="1.1" xmlns="http://www.w3.org/2000/svg" p-id="4457" xmlns:xlink="http://www.w3.org/1999/xlink" width="200" height="200"><defs><style type="text/css"></style></defs><path d="M501.76 424.96s0.512 0 0 0c0-1.536 0-2.048-0.512-2.56 0.512 1.024 0.512 1.536 0.512 2.56z m196.608 214.528z m5.12 1.024c-1.024 0-4.096 0-5.12-0.512-0.512 2.048 0.512 3.072 5.12 0.512zM512 0C229.376 0 0 229.376 0 512s229.376 512 512 512 512-229.376 512-512S794.624 0 512 0z m327.168 200.192c-17.408 0.512-29.696 0.512-44.032 10.24-5.632 4.096-9.728 9.216-16.896 11.264-6.656 1.536-13.312 0-19.968 2.56-23.04 7.68-19.456 57.856-50.176 50.176-14.336-3.584-24.576-20.48-31.744-31.744-6.656-9.728-17.92-17.92-10.24-30.208-3.584 1.024-7.168 0-10.752 0.512 4.608-10.752 21.504-9.728 24.064-15.36 6.656-13.824-18.944-15.36-26.112-17.408 8.704-9.216 13.312 3.072 22.016 1.024 8.192-2.048-4.608-12.8-9.216-14.336-1.536-0.512-31.232 8.192-14.336-7.168-20.992-13.312-41.472-26.624-62.464-39.936-3.584 14.848 27.648 23.04 37.888 28.672-1.536 6.144-11.264 14.848-18.432 12.288-6.656-2.56-4.096-13.824-14.336-12.8-7.168 17.408 15.872 12.288 17.92 22.528 2.56 11.776-8.704 6.656-12.8 6.656-1.024 0-9.216-8.192-9.216-2.048-0.512 7.68 12.8 4.608 13.824 12.288-15.36 0.512-23.552-5.12-35.84-13.312-14.848-9.728-22.016-8.704-39.936-8.704 5.632-2.048 12.8-3.584 17.408-7.168 2.56-2.048 12.288-11.776 12.8-13.824 2.56-9.216 0-8.704-8.704-14.336-7.68-5.632-17.408-14.848-26.624-16.896-34.304-6.656-10.752 31.232-36.864 36.352h1.536-1.536c-6.144 0-17.408-1.536-20.992 1.536-2.56 2.048-3.072 11.264-6.144 14.336-5.632 5.632-13.824 7.168-19.968 11.264-6.656 4.096-20.48 14.848-24.064 22.016-13.824 26.112 31.232 34.304 48.128 41.984 7.68 3.584 30.208 8.192 34.304 14.336 5.632 7.68-5.12 14.848 6.656 20.48 3.584 1.536 11.264 2.048 14.848-1.536 5.12-6.144-2.048-7.168-3.584-13.824-2.56-13.312 1.536-7.68 8.192-12.8 13.312-9.728 10.24-10.752 5.632-26.624-2.048-7.168-10.752-27.648-3.072-33.28 9.728-7.168 30.208 4.096 37.888 4.608 8.704 1.024 13.824 13.312 18.432 17.92 3.072 3.072 8.704 10.24 14.336 9.216 8.704-1.024 5.12-8.704 10.24-12.288 13.824-9.216 16.896 3.584 22.528 15.872 5.12 11.776 9.728 16.384 18.944 24.064 4.096 3.584 22.528 16.384 20.992 24.064-1.024 5.12-22.016 13.312-27.648 14.848-20.48 6.656-58.88-10.752-62.976 22.016 8.192-3.072 30.72-21.504 37.376-12.8 3.072 4.096-2.56 9.728-1.024 13.824 4.096 11.776 13.312 7.68 22.528 5.632-0.512 0.512-1.536 0.512-2.048 1.024 13.312-6.656 11.776-5.12 17.92-16.384 2.048-3.584 4.608-12.288 7.68-14.848 9.728-8.704 10.752-2.56 16.896 4.096 1.536 1.536 15.872 22.528 10.752 21.504-16.896-3.584-33.28-3.072-47.104 6.144-8.192 5.12-15.872 12.8-25.6 16.384-2.56 1.024-19.456 2.56-17.408-0.512 3.072-4.096 13.312-7.168 17.408-11.776-11.264-4.608-20.48 5.632-29.184 11.264-9.216 4.608-11.264 12.8-19.456 19.968-3.584 3.072-9.728 3.584-13.312 7.68-3.584 4.096-3.584 10.24-6.656 14.336-2.048 2.56-7.68 1.024-10.24 5.12-3.072 5.12 2.56 10.24 1.536 13.824-2.56 6.656-15.36 12.8-20.48 17.408l2.048-2.048c-5.12 5.12-11.264 9.216-15.36 15.36 2.048 8.704 7.68 29.184 5.632 33.792-5.12 15.36-15.36-8.192-19.456-14.848-14.336-21.504-42.496-7.168-61.952-5.12-24.576 2.048-49.152 34.304-33.792 60.416 7.168 12.288 19.456 17.408 33.792 14.336 12.8-2.56 16.384-19.968 28.16-20.48 22.016-0.512 0.512 21.504-1.536 29.184-1.536 7.168 2.56 8.192 10.24 9.728 5.632 1.536 13.824-2.56 18.432 1.024 3.072 2.048 3.072 13.312 7.168 9.728-8.192 7.168-6.656 23.552 2.048 29.184 9.728 6.656 20.992 0.512 30.72 3.072 18.944 4.608 9.728-1.536 26.112-11.264 11.264-6.656 12.8 1.536 20.48 1.536 5.12 0 8.704-7.68 16.896-5.12 7.168 2.048 9.728 7.168 18.432 8.704 3.584 0.512 7.168-1.536 10.24-1.024 15.872 1.536 27.648 11.776 39.936 20.992 10.24 7.168 16.896 5.632 28.672 9.216 8.704 2.56 24.576 14.848 24.064 26.112 0 2.048-7.68 11.776-9.216 16.384 2.048 1.536 17.408-2.048 22.016-2.048-1.536 1.536-11.776 9.216-11.776 5.12 0 2.048 7.168 6.144 9.216 7.168 5.632-17.92 14.336-6.144 25.088-2.048 9.216 3.584 20.48 4.096 30.208 6.144 8.192 2.048 26.624 7.68 32.768 14.336 7.168 8.192 2.048 21.504-3.072 29.696-7.168 10.752-17.92 14.848-22.528 27.136-3.584 9.728-1.024 19.968-3.072 31.232-2.56 14.848-5.12 9.728-14.336 18.944-8.192 7.68 0 6.144-11.264 11.264-10.752 4.608-20.992 3.584-28.672 15.872 0.512-1.024 0.512-1.536 1.024-2.56-3.072 4.608-4.608 13.824-6.656 16.896-3.584 7.68-9.216 12.8-15.36 18.944-2.56 2.56-24.064 31.744-25.088 29.696-1.536-3.072-18.432 3.072-19.456-1.536 0.512 3.584 0 2.56 4.096 4.608-4.096 24.064-13.824 27.648-37.888 28.16 2.048 11.776-8.704 9.216-13.824 15.36-3.072 3.584-4.096 13.824-6.144 18.432-1.024 3.072-10.24 14.848-10.24 17.408 0 2.048 3.072 5.12 6.144 8.192-16.896 3.584-33.792 5.632-51.2 7.168 3.072-4.096 4.096-7.68-6.144-8.192 2.56-7.68 9.216-11.776 11.776-18.944 1.536-3.584 0-4.608 1.536-8.192 3.584-11.776 2.048-7.168 0-16.384-5.12-21.504 1.536-27.136 7.68-46.592 6.144-19.968 5.632-46.08 9.216-68.096 1.536-10.24 4.608-31.744 1.024-41.472-4.096-11.264-22.016-19.968-30.208-27.136-11.776-10.752-17.92-22.016-26.112-34.816-4.096-6.656-9.216-12.8-12.8-20.48-7.168-15.36 0-6.144 1.536-15.36 1.024-8.704-1.024-16.384 2.56-25.6 4.096-10.24 13.312-16.384 16.384-26.624 3.072-9.216 0.512-20.48-8.704-23.552-5.12-1.536-10.752 2.048-16.384 1.536-7.168-1.024-15.36-6.656-21.504-11.264-8.192-6.144-11.264-15.872-19.456-22.016-7.168-4.608-12.288-2.048-19.968-4.096-8.192-2.56-12.8-12.288-19.456-15.36-9.728-4.608-14.848 2.048-25.088 0.512-8.704-1.024-22.016-10.752-30.208-14.336-16.384-7.168-26.624-15.36-33.28-32.256-5.632-14.336-13.824-20.992-23.552-33.28s-12.8-22.528-28.16-25.6c-2.048-0.512 3.584 12.8 4.096 13.824 5.632 9.728 13.312 18.944 19.968 28.672 9.728 13.824 5.632 16.384-4.096 3.072-11.264-15.36-24.064-30.208-33.792-46.592-3.584-6.144-3.072-9.728-9.216-15.872-5.632-5.632-13.312-8.192-19.456-13.824-20.992-18.944-25.088-44.544-22.528-71.68 0.512-8.704 4.096-15.872 2.56-24.576-1.024-7.168-5.12-12.8-10.752-17.92-1.536-2.56-6.144-9.216-6.144-9.728-4.608-8.192-8.704-15.872-16.384-22.528-4.096-3.584-15.872-12.8-26.624-19.968A462.694 462.694 0 0 1 340.992 92.16c0.512 3.584 2.048 7.168 4.608 10.752 6.144 8.704 11.776 8.192 23.04 10.752-1.024 13.312-16.896 13.312-27.648 12.288-12.8-1.536-26.112-6.144-36.864 5.12 6.144 3.584 22.528 17.92 20.48 3.072 12.288-0.512 24.064-1.024 35.84 0.512 4.608 0.512 20.992 6.144 25.088 3.584 2.048-1.024 3.584-9.728 5.632-12.8-3.584 0-7.168-1.536-10.24-1.536 7.68-10.24 15.872-2.048 25.6 2.56-11.264 6.656-4.608 23.04 6.144 9.728 8.704-10.752-2.048-18.432-13.312-24.576 11.264-14.336 18.432-15.36 28.672 0.512 2.048-9.728 9.728-6.144 17.92-5.12v-2.56c-3.584 0-7.68-2.048-11.264-1.536 8.704-13.312 3.072-16.384 15.36-20.992 9.728-3.584 37.376 0 40.448-9.216-19.456 3.584-42.496 4.608-59.904 13.312-7.68 3.584-16.384 15.872-24.064 7.68-7.68-7.68 5.632-20.48 12.288-24.576h-1.536c31.232-6.656 62.464-10.24 94.208-10.24 20.992 0 41.472 1.536 61.44 4.096-7.168 3.584-1.536 6.144-6.656 9.728-9.728 7.168-27.136 13.312-38.4 17.408 14.848 0 50.176 13.824 56.832-6.656-4.608-0.512-9.216-1.536-14.336-2.048 8.704-5.632 18.944-10.752 29.184-13.824 93.696 18.432 176.64 66.048 240.128 132.608h-0.512z m82.944 179.712c1.024-1.536 2.56-2.56 3.584-4.096 1.536-3.072 1.536-5.12 3.584-7.68 2.048-3.072 5.12-3.584 7.68-5.632 1.024-1.024 1.536-1.536 2.048-2.56 7.68 20.992 13.824 43.008 17.92 65.024l-0.512 0.512c-1.024 1.024-8.192 2.048-9.728 2.048-5.12 0-9.216-3.072-12.8-6.656-3.584-3.584-8.192-7.68-10.752-11.776-3.072-4.608-1.024-9.216-1.024-14.336 0-4.608-2.048-11.264 0-14.848z m5.632 234.496c-8.704-7.68-18.944-17.92-25.6-27.648-6.656-10.752-2.56-21.504-2.048-33.28 0.512-10.24-4.608-24.576-0.512-33.792 2.048-4.096 6.656-5.632 8.192-9.216 4.096-7.168 3.072-12.288 8.192-18.432 5.12-6.656 12.288-8.192 17.92-13.312 6.144-5.632 6.144-9.728 9.728-16.896 2.56-5.12 9.728-13.824 15.872-18.432 3.584 22.528 5.12 45.568 5.12 68.608 0 40.448-5.632 79.36-15.36 116.736-7.68-2.048-14.848-8.192-21.504-14.336z" p-id="4458"></path></svg>