<svg id="房屋" xmlns="http://www.w3.org/2000/svg" width="16" height="16" viewBox="0 0 16 16">
  <defs>
    <style>
      .cls-1 {
        fill: #585858;
      }

      .cls-2 {
        fill: none;
      }
    </style>
  </defs>
  <g id="home" transform="translate(1.868 1.535)">
    <path id="Shape" class="cls-1" d="M10.174,12.964H2.089a1.034,1.034,0,0,1-1.021-1.044V7.906a.511.511,0,1,1,1.021,0v4.014H4.117V8.442A1.034,1.034,0,0,1,5.139,7.4H7.125A1.034,1.034,0,0,1,8.146,8.442v3.478h2.028V7.906a.511.511,0,1,1,1.021,0v4.014A1.034,1.034,0,0,1,10.174,12.964ZM5.139,8.442v3.478H7.125V8.442Zm6.615-2.074a.506.506,0,0,1-.342-.134l-5.28-5.19L.853,6.234A.5.5,0,0,1,.132,6.2.528.528,0,0,1,0,5.82a.52.52,0,0,1,.168-.36L5.448.269a1,1,0,0,1,1.369,0l5.278,5.19a.519.519,0,0,1,.168.36.529.529,0,0,1-.131.377A.5.5,0,0,1,11.754,6.368Z" transform="translate(0 0)"/>
  </g>
  <rect id="Rectangle_48_Copy_3" data-name="Rectangle 48 Copy 3" class="cls-2" width="16" height="16"/>
</svg>
