<svg xmlns="http://www.w3.org/2000/svg" width="24" height="24" viewBox="0 0 24 24">
  <defs>
    <style>
      .cls-1 {
        opacity: 0.65;
      }

      .cls-2 {
        fill: none;
      }
    </style>
  </defs>
  <g id="Group_103" data-name="Group 103" class="cls-1">
    <rect id="Rectangle_45_Copy_18" data-name="Rectangle 45 Copy 18" class="cls-2" width="24" height="24"/>
    <g id="bars" transform="translate(2.977 4.523)">
      <path id="Shape" d="M1.477,14.916a1.476,1.476,0,1,1,1.476-1.477A1.479,1.479,0,0,1,1.477,14.916Zm15.677-.795H5.486a.846.846,0,1,1,0-1.692H17.156a.846.846,0,1,1,0,1.692ZM1.477,8.934A1.476,1.476,0,1,1,2.953,7.457,1.479,1.479,0,0,1,1.477,8.934ZM17.154,8.14H5.486a.846.846,0,1,1,0-1.692H17.156a.846.846,0,1,1,0,1.692ZM1.477,2.953A1.476,1.476,0,1,1,2.953,1.477,1.478,1.478,0,0,1,1.477,2.953Zm15.677-.8H5.486a.846.846,0,1,1,0-1.692H17.156a.846.846,0,1,1,0,1.692Z" transform="translate(0.019 0.019)"/>
    </g>
  </g>
</svg>
